<?xml version="1.0" standalone="no"?>
<!DOCTYPE svg PUBLIC "-//W3C//DTD SVG 20010904//EN"
 "http://www.w3.org/TR/2001/REC-SVG-20010904/DTD/svg10.dtd">
<svg version="1.0" xmlns="http://www.w3.org/2000/svg"
 width="700.000000pt" height="700.000000pt" viewBox="0 0 700.000000 700.000000"
 preserveAspectRatio="xMidYMid meet">
<metadata>
Created by potrace 1.11, written by Peter Selinger 2001-2013
</metadata>
<g transform="translate(0.000000,700.000000) scale(0.100000,-0.100000)"
fill="#000000" stroke="none">
<path d="M6935 6970 c-11 -5 -90 -34 -175 -66 -267 -98 -506 -202 -760 -329
-266 -134 -269 -135 -457 -244 -70 -40 -136 -78 -148 -85 -11 -6 -22 -13 -25
-16 -3 -3 -68 -46 -145 -95 -227 -146 -617 -436 -780 -580 -16 -15 -46 -40
-65 -57 -205 -175 -588 -559 -805 -808 -206 -237 -503 -648 -751 -1040 -97
-153 -315 -564 -413 -780 -24 -52 -56 -122 -72 -155 -54 -116 -138 -321 -199
-485 -33 -91 -66 -176 -72 -190 -17 -41 -27 -80 -20 -80 4 0 50 24 102 53 52
30 115 65 140 79 25 14 63 36 86 49 23 13 106 61 186 106 80 46 150 88 156 95
5 7 20 49 32 93 31 114 96 304 137 404 111 270 302 559 450 680 77 63 122 75
293 75 130 0 166 -4 355 -42 116 -23 227 -44 249 -48 21 -3 48 -7 59 -10 170
-32 418 -20 508 27 110 56 540 552 507 584 -4 4 -58 22 -120 40 -233 68 -357
122 -493 216 -74 51 -130 98 -124 104 2 1 47 6 99 9 154 10 344 40 485 78 22
5 51 12 65 15 43 7 100 23 265 74 277 85 251 71 323 179 34 52 62 100 62 106
0 6 -42 28 -92 49 -134 55 -223 101 -304 156 -70 49 -121 95 -113 103 2 2 38
7 79 11 41 3 86 8 100 10 14 2 50 7 80 10 66 8 297 56 431 90 105 27 116 37
212 203 47 82 88 155 89 162 2 6 -40 31 -93 54 -52 23 -131 64 -176 90 -83 50
-193 132 -193 145 0 4 12 7 28 8 79 0 224 18 397 48 112 20 258 59 279 76 31
25 237 438 307 614 29 74 79 214 79 222 0 5 -24 2 -45 -7z"/>
<path d="M799 6208 c-10 -20 -19 -5391 -9 -5408 7 -12 5378 -8 5403 4 16 8 17
97 15 1823 -1 998 -5 1816 -8 1818 -9 5 -138 -152 -429 -520 -247 -313 -232
-293 -284 -358 -21 -26 -40 -57 -43 -69 -3 -13 -7 -450 -9 -972 -2 -521 -6
-950 -8 -953 -4 -3 -3616 -7 -3828 -4 l-35 1 0 1930 c0 1732 2 1930 16 1931 8
0 487 1 1064 1 l1048 0 272 273 c257 258 429 435 469 481 l18 21 -1826 2
c-1004 1 -1826 0 -1826 -1z"/>
</g>
</svg>
